<svg xmlns="http://www.w3.org/2000/svg" width="32" height="32" fill="none" viewBox="0 0 32 32">
  <path fill="#1877F2" d="M32 16.098C32 7.208 24.837 0 16 0S0 7.207 0 16.098C0 24.133 5.851 30.792 13.5 32V20.751H9.438v-4.653H13.5V12.55c0-4.034 2.389-6.263 6.043-6.263 1.751 0 3.582.315 3.582.315v3.961h-2.018c-1.987 0-2.607 1.241-2.607 2.514v3.02h4.438l-.71 4.653H18.5V32C26.149 30.792 32 24.133 32 16.098Z"/>
  <path fill="#fff" d="m22.952 20.515.829-4.67h-5.187v-3.03c0-1.278.724-2.524 3.048-2.524H24V6.316S21.86 6 19.813 6c-4.272 0-7.064 2.236-7.064 6.285v3.56H8v4.67h4.749v11.289a21.756 21.756 0 0 0 5.845 0v-11.29h4.358Z"/>
</svg>
